<svg width="308" height="84" viewBox="0 0 308 84" fill="none" xmlns="http://www.w3.org/2000/svg">
<path d="M282.253 30.0941C277.734 29.8821 273.429 30.7722 269.598 32.51C261.807 24.16 241.964 6.9938 208.346 5.17121C180.411 3.64532 159.707 12.5463 137.84 21.956C112.143 33.0187 85.5846 44.5052 42.11 42.0892C-24.178 38.4864 -62.4012 1.10218 -62.7886 0.720703L-67.3943 5.17121L-72 9.62172C-70.3213 11.3172 -30.118 50.8631 41.3783 54.7626C45.4675 54.9745 49.4275 55.1017 53.2585 55.1017C92.9882 55.1017 119.417 43.7423 143.005 33.5697C164.312 24.372 182.735 16.4882 207.615 17.8022C235.981 19.3281 252.725 33.3154 259.44 40.309C256.125 44.4628 254.016 49.5491 253.715 55.2288C252.897 69.9367 264.347 82.5253 279.283 83.3306C279.8 83.3306 280.316 83.3306 280.79 83.3306C295.037 83.3306 307.047 72.3103 307.822 58.1111C308.639 43.4032 297.19 30.8146 282.253 30.0093V30.0941ZM279.972 70.6996C272.138 70.2758 266.155 63.6636 266.585 55.9918C267.016 48.5743 273.257 42.7674 280.747 42.7674C281.005 42.7674 281.263 42.7674 281.522 42.7674C289.313 43.1913 295.339 49.8034 294.908 57.4753C294.478 65.1895 287.72 71.1235 279.972 70.6573V70.6996Z" fill="white"/>
</svg>
