<svg width="16" height="16" viewBox="0 0 16 16" fill="none" xmlns="http://www.w3.org/2000/svg">
<g id="hand-heart">
<path id="Vector" d="M7.33325 9.33333H8.66659C9.02021 9.33333 9.35935 9.19286 9.60939 8.94281C9.85944 8.69276 9.99992 8.35362 9.99992 8C9.99992 7.64638 9.85944 7.30724 9.60939 7.05719C9.35935 6.80714 9.02021 6.66667 8.66659 6.66667H6.66659C6.26659 6.66667 5.93325 6.8 5.73325 7.06667L1.99992 10.6667M4.66659 13.3334L5.73325 12.4C5.93325 12.1334 6.26659 12 6.66659 12H9.33325C10.0666 12 10.7333 11.7334 11.1999 11.2L14.2666 8.26669C14.5238 8.02357 14.674 7.68822 14.684 7.3344C14.694 6.98058 14.563 6.63728 14.3199 6.38002C14.0768 6.12276 13.7414 5.97261 13.3876 5.96261C13.0338 5.95261 12.6905 6.08357 12.4333 6.32669L9.63325 8.92669M1.33325 10L5.33325 14M12.9999 5.66667C13.4665 5.2 13.9999 4.6 13.9999 3.86667C14.0465 3.45929 13.9541 3.0481 13.7378 2.69976C13.5215 2.35141 13.1939 2.08632 12.8081 1.94743C12.4223 1.80854 12.0009 1.804 11.6122 1.93454C11.2235 2.06509 10.8903 2.32306 10.6665 2.66667C10.4285 2.34972 10.0952 2.11742 9.71549 2.00386C9.33576 1.8903 8.92963 1.90146 8.55671 2.03571C8.18379 2.16996 7.86374 2.42022 7.64352 2.74976C7.42331 3.0793 7.31454 3.47076 7.33319 3.86667C7.33319 4.66667 7.86652 5.2 8.33319 5.73333L10.6665 8L12.9999 5.66667Z" stroke="#7B4DB0" stroke-linecap="round" stroke-linejoin="round"/>
</g>
</svg>
