<svg width="62" height="62" viewBox="0 0 62 62" fill="none" xmlns="http://www.w3.org/2000/svg">
<path d="M49 22H55C56.5913 22 58.1174 22.6321 59.2426 23.7574C60.3679 24.8826 61 26.4087 61 28V61L49 49H31C29.4087 49 27.8826 48.3679 26.7574 47.2426C25.6321 46.1174 25 44.5913 25 43V40M37 22C37 23.5913 36.3679 25.1174 35.2426 26.2426C34.1174 27.3679 32.5913 28 31 28H13L1 40V7C1 3.7 3.7 1 7 1H31C32.5913 1 34.1174 1.63214 35.2426 2.75736C36.3679 3.88258 37 5.4087 37 7V22Z" stroke="white" stroke-width="2" stroke-linecap="round" stroke-linejoin="round"/>
</svg>
