<svg width="129" height="32" viewBox="0 0 129 32" fill="none" xmlns="http://www.w3.org/2000/svg">
<path d="M11.251 7.59666C11.8925 7.63564 12.4453 7.13947 12.4808 6.49445C12.5162 5.85297 12.02 5.30009 11.3786 5.26465C11.3573 5.26465 11.336 5.26465 11.3148 5.26465C10.7016 5.26465 10.1842 5.74664 10.1488 6.3704C10.1133 7.01188 10.606 7.56476 11.251 7.6002V7.59666Z" fill="white"/>
<path d="M28.6486 1.30997L5.04148 0.00574168C3.2907 -0.0934927 1.76675 1.10441 1.39462 2.7595C2.58897 2.32357 3.84004 2.03296 5.35336 2.11447C8.12129 2.26687 9.75866 3.70222 10.3966 4.40041C10.7156 4.2551 11.07 4.18068 11.4386 4.1984C12.6684 4.26573 13.6111 5.32187 13.5437 6.54813C13.4764 7.73539 12.4912 8.65686 11.3181 8.65686C11.2755 8.65686 11.2365 8.65686 11.194 8.65686C9.96422 8.58952 9.02149 7.53338 9.08883 6.30713C9.11364 5.83576 9.2873 5.40693 9.56019 5.05961C9.01086 4.47483 7.62867 3.30529 5.29311 3.1777C3.76561 3.09264 2.53227 3.43996 1.27412 3.94322L0.00533521 26.955C-0.100987 28.9078 1.39462 30.5806 3.34741 30.6904L26.9546 31.9947C28.9074 32.101 30.5802 30.6054 30.69 28.6526L31.9943 5.04543C32.1006 3.09264 30.605 1.41983 28.6522 1.30997H28.6486ZM23.9208 16.1739L23.3112 27.2243L19.0654 26.9904L19.675 15.94C19.7778 14.0829 18.3495 12.4916 16.496 12.3888C14.6389 12.286 13.0476 13.7143 12.9448 15.5678L12.3352 26.6183L8.0894 26.3844L8.69898 15.3339C8.92935 11.1377 12.5337 7.90905 16.7334 8.14296C20.9296 8.37333 24.1583 11.9777 23.9244 16.1774L23.9208 16.1739Z" fill="white"/>
<path d="M36.7861 21.6746V11.5137H42.2405V19.9238C42.2405 21.6179 43.13 22.5358 44.452 22.5358C45.7739 22.5358 46.7202 21.6179 46.7202 19.9238V11.5137H52.1746V27.0439H46.7202V24.921C45.7172 26.211 44.2819 27.3876 42.0704 27.3876C38.7708 27.3876 36.7897 25.2045 36.7897 21.6746H36.7861Z" fill="white"/>
<path d="M56.2466 19.3453V19.2886C56.2466 14.2383 59.4044 11.1656 63.0796 11.1656C65.4329 11.1656 66.8115 12.2288 67.8464 13.4055V6.08691H73.3007V27.0396H67.8464V24.9734C66.7831 26.2669 65.4364 27.3833 63.1115 27.3833C59.4363 27.3833 56.2501 24.3106 56.2501 19.3453H56.2466ZM67.9279 19.2886V19.2319C67.9279 17.1941 66.5209 15.7304 64.7701 15.7304C63.0193 15.7304 61.584 17.1657 61.584 19.2319V19.2886C61.584 21.3548 63.0193 22.8185 64.7701 22.8185C66.5209 22.8185 67.9279 21.3548 67.9279 19.2886Z" fill="white"/>
<path d="M77.8049 29.9107L79.5557 26.2922C81.2214 27.2101 82.8872 27.7559 84.9817 27.7559C87.7071 27.7559 89.0574 26.4056 89.0574 23.9389V23.3364C87.9658 24.5981 86.5305 25.6613 84.2623 25.6613C80.4453 25.6613 77.3726 22.904 77.3726 18.4562V18.3995C77.3726 13.9233 80.502 11.166 84.0886 11.166C86.4135 11.166 87.7922 12.1123 88.9688 13.3492V11.5133H94.4232V23.3116C94.4232 26.154 93.7923 28.1351 92.4137 29.5138C91.035 30.8924 88.827 31.6969 85.5807 31.6969C82.5682 31.6969 80.0413 31.0661 77.8014 29.9178L77.8049 29.9107ZM89.0574 18.4562V18.3995C89.0574 16.6771 87.7355 15.4154 85.8996 15.4154C84.0638 15.4154 82.7135 16.7054 82.7135 18.4278V18.4846C82.7135 20.207 84.0354 21.4687 85.8996 21.4687C87.7638 21.4687 89.0574 20.1786 89.0574 18.4562Z" fill="white"/>
<path d="M98.676 30.3718L100.37 26.5548C101.231 27.0722 102.149 27.3876 102.752 27.3876C103.298 27.3876 103.67 27.2459 104.013 26.7568L97.9282 11.5137H103.641L106.742 20.8701L109.67 11.5137H115.266L109.581 26.6682C108.231 30.2867 106.767 31.7185 103.67 31.7185C101.745 31.7185 100.111 31.1727 98.676 30.3682V30.3718Z" fill="white"/>
<path d="M119.718 22.2168V15.9012H117.882V11.5101H119.718V7.57617H125.172V11.5101H128.791V15.9012H125.172V21.1536C125.172 22.2451 125.661 22.7023 126.664 22.7023C127.38 22.7023 128.071 22.5003 128.73 22.1849V26.4626C127.756 27.0084 126.462 27.3522 124.942 27.3522C121.67 27.3522 119.718 25.9168 119.718 22.2132V22.2168Z" fill="white"/>
</svg>
