<svg width="63" height="62" viewBox="0 0 63 62" fill="none" xmlns="http://www.w3.org/2000/svg">
<path d="M60.2865 40H46.6665C45.0752 40 43.5491 40.6321 42.4239 41.7574C41.2986 42.8826 40.6665 44.4087 40.6665 46V59.62M16.6665 5.02026V10.0003C16.6665 12.3872 17.6147 14.6764 19.3025 16.3642C20.9904 18.0521 23.2796 19.0003 25.6665 19.0003C27.2578 19.0003 28.7839 19.6324 29.9091 20.7576C31.0344 21.8828 31.6665 23.409 31.6665 25.0003C31.6665 28.3003 34.3665 31.0003 37.6665 31.0003C39.2578 31.0003 40.7839 30.3681 41.9091 29.2429C43.0344 28.1177 43.6665 26.5916 43.6665 25.0003C43.6665 21.7003 46.3665 19.0003 49.6665 19.0003H59.1765M28.6666 60.85V49C28.6666 47.4087 28.0345 45.8826 26.9093 44.7574C25.7841 43.6321 24.2579 43 22.6666 43C21.0754 43 19.5492 42.3679 18.424 41.2426C17.2988 40.1174 16.6666 38.5913 16.6666 37V34C16.6666 32.4087 16.0345 30.8826 14.9093 29.7574C13.7841 28.6321 12.2579 28 10.6667 28H1.81665M61.6665 31C61.6665 47.5685 48.235 61 31.6665 61C15.098 61 1.6665 47.5685 1.6665 31C1.6665 14.4315 15.098 1 31.6665 1C48.235 1 61.6665 14.4315 61.6665 31Z" stroke="white" stroke-width="2" stroke-linecap="round" stroke-linejoin="round"/>
</svg>
